<?xml version="1.0" encoding="UTF-8" standalone="no"?>
<!-- Created with Inkscape (http://www.inkscape.org/) -->

<svg
   version="1.1"
   id="svg1"
   width="1414.5836"
   height="533.25555"
   viewBox="0 0 1414.5836 533.25555"
   sodipodi:docname="logo-rect-sky-600.svg"
   inkscape:version="1.3.2 (1:1.3.2+202404261509+091e20ef0f)"
   xmlns:inkscape="http://www.inkscape.org/namespaces/inkscape"
   xmlns:sodipodi="http://sodipodi.sourceforge.net/DTD/sodipodi-0.dtd"
   xmlns="http://www.w3.org/2000/svg"
   xmlns:svg="http://www.w3.org/2000/svg">
  <defs
     id="defs1" />
  <sodipodi:namedview
     id="namedview1"
     pagecolor="#505050"
     bordercolor="#ffffff"
     borderopacity="1"
     inkscape:showpageshadow="0"
     inkscape:pageopacity="0"
     inkscape:pagecheckerboard="1"
     inkscape:deskcolor="#505050"
     inkscape:zoom="0.48457474"
     inkscape:cx="674.8185"
     inkscape:cy="42.305136"
     inkscape:window-width="1920"
     inkscape:window-height="966"
     inkscape:window-x="0"
     inkscape:window-y="44"
     inkscape:window-maximized="0"
     inkscape:current-layer="layer2"
     showguides="true">
    <sodipodi:guide
       position="605.33243,484.01754"
       orientation="0,-1"
       id="guide3"
       inkscape:locked="false" />
    <sodipodi:guide
       position="652.79673,5.2472234"
       orientation="0,-1"
       id="guide4"
       inkscape:locked="false" />
    <sodipodi:guide
       position="640.41474,38.265866"
       orientation="0,-1"
       id="guide5"
       inkscape:locked="false" />
  </sodipodi:namedview>
  <g
     inkscape:groupmode="layer"
     inkscape:label="capsule"
     id="g1"
     style="display:inline;fill:#0284c7;fill-opacity:1"
     transform="translate(35.760851,-2.9725151)">
    <g
       inkscape:groupmode="layer"
       id="layer3"
       inkscape:label="right-circle"
       style="display:inline;fill:#0284c7;fill-opacity:1">
      <ellipse
         style="display:inline;fill:#d97706;fill-opacity:1;stroke:#d97706;stroke-width:31.0181;stroke-linejoin:miter;stroke-dasharray:none;stroke-opacity:1"
         id="ellipse3"
         cx="1059.7781"
         cy="267.96481"
         rx="253.53563"
         ry="249.3432" />
    </g>
    <g
       inkscape:groupmode="layer"
       id="layer2"
       inkscape:label="rect"
       style="display:inline"
       transform="matrix(0.9969821,0,0,1.0181632,59.027981,-1.9318806)">
      <rect
         style="display:inline;fill:#d97706;fill-opacity:1;stroke:#d97706;stroke-width:17.8705;stroke-linejoin:miter;stroke-dasharray:none;stroke-opacity:1"
         id="rect3"
         width="824.32855"
         height="502.55099"
         x="170.44882"
         y="11.907765" />
    </g>
    <g
       inkscape:groupmode="layer"
       id="layer5"
       inkscape:label="left-circle"
       style="display:inline;fill:#0284c7;fill-opacity:1">
      <ellipse
         style="display:inline;fill:#d97706;fill-opacity:1;stroke:#d97706;stroke-width:31.0181;stroke-linejoin:miter;stroke-dasharray:none;stroke-opacity:1"
         id="path3"
         cx="233.28383"
         cy="271.37582"
         rx="253.53563"
         ry="249.3432" />
    </g>
  </g>
  <g
     inkscape:groupmode="layer"
     id="layer1"
     inkscape:label="text"
     style="display:inline"
     transform="translate(35.760851,-2.9725151)">
    <g
       inkscape:groupmode="layer"
       id="layer7"
       inkscape:label="text-Comms"
       style="display:inline">
      <text
         xml:space="preserve"
         style="font-style:normal;font-variant:normal;font-weight:normal;font-stretch:normal;font-size:96px;font-family:Ubuntu;-inkscape-font-specification:'Ubuntu, Normal';font-variant-ligatures:normal;font-variant-caps:normal;font-variant-numeric:normal;font-variant-east-asian:normal;display:inline;fill:#0ea5e9;fill-opacity:1;stroke:#a4b888;stroke-width:1.319;stroke-opacity:1"
         x="438.31921"
         y="487.31033"
         id="text3"><tspan
           sodipodi:role="line"
           id="tspan3"
           x="438.31921"
           y="487.31033">Communication</tspan></text>
    </g>
    <g
       inkscape:groupmode="layer"
       id="layer6"
       inkscape:label="text-Miss"
       style="display:inline">
      <text
         xml:space="preserve"
         style="font-style:normal;font-variant:normal;font-weight:normal;font-stretch:normal;font-size:236.755px;font-family:Ubuntu;-inkscape-font-specification:'Ubuntu, Normal';font-variant-ligatures:normal;font-variant-caps:normal;font-variant-numeric:normal;font-variant-east-asian:normal;display:inline;fill:#0ea5e9;fill-opacity:1;stroke:#a4b888;stroke-width:1.62645;stroke-opacity:1"
         x="546.65686"
         y="384.25198"
         id="text1"><tspan
           sodipodi:role="line"
           x="546.65686"
           y="384.25198"
           id="tspan2"
           style="fill:#0ea5e9;fill-opacity:1;stroke-width:1.62645">Miss</tspan></text>
    </g>
  </g>
  <g
     inkscape:groupmode="layer"
     id="layer8"
     inkscape:label="logo"
     style="display:inline;fill:#0284c7;fill-opacity:1"
     transform="translate(35.760851,-2.9725151)">
    <path
       style="display:inline;fill:#0ea5e9;fill-opacity:1;stroke:#a4b888;stroke-width:0.840487;stroke-opacity:1"
       d="m 226.63731,487.52107 c -2.80374,-0.28346 -8.68206,-0.79551 -13.06291,-1.13792 -13.48138,-1.0537 -25.16365,-3.18878 -40.14456,-7.33688 -5.62143,-1.55654 -9.11098,-2.64672 -11.03345,-3.44698 -0.98659,-0.4107 -2.2913,-0.74672 -2.89932,-0.74672 -0.60803,0 -1.37792,-0.2422 -1.71087,-0.53822 -0.33294,-0.29602 -2.46921,-1.20582 -4.74725,-2.02179 -6.76986,-2.42487 -23.67848,-10.40621 -29.63051,-13.98641 -1.75234,-1.05405 -3.90294,-2.27523 -4.77912,-2.71373 -0.87617,-0.4385 -1.97195,-1.15905 -2.43507,-1.60123 -0.46311,-0.44216 -1.25167,-0.80394 -1.75234,-0.80394 -0.50066,0 -0.91031,-0.22155 -0.91031,-0.49231 0,-0.27077 -1.05421,-1.05933 -2.3427,-1.75235 -1.28849,-0.69301 -2.65828,-1.54677 -3.04397,-1.89724 -1.18953,-1.08088 -4.73632,-3.50469 -5.12847,-3.50469 -0.38576,0 -0.47609,-0.0694 -4.140802,-3.1827 -1.226645,-1.04206 -2.405204,-1.89924 -2.619037,-1.90484 -0.213832,-0.006 -1.421631,-0.9421 -2.684016,-2.08113 -1.262376,-1.13902 -2.66453,-2.36195 -3.115905,-2.71762 -5.101575,-4.01992 -8.374961,-7.00939 -15.744346,-14.37878 -4.759309,-4.75931 -9.80028,-10.06072 -11.202148,-11.78093 -1.401877,-1.72019 -2.978987,-3.57425 -3.504684,-4.12014 -1.53624,-1.59522 -5.365114,-6.41001 -5.997041,-7.54126 -0.319386,-0.57176 -0.964574,-1.26887 -1.433738,-1.54914 -0.469164,-0.28026 -0.853024,-0.80256 -0.853024,-1.16064 0,-0.35809 -0.358434,-1.03703 -0.79652,-1.50875 -1.8533,-1.99562 -10.673353,-15.475 -10.673353,-16.31172 0,-0.31988 -0.286744,-0.5816 -0.637218,-0.5816 -0.350465,0 -0.637218,-0.32093 -0.637218,-0.71316 0,-0.39224 -0.969407,-2.32778 -2.154248,-4.3012 -3.241421,-5.39879 -11.864487,-22.88128 -11.864487,-24.05418 0,-0.20315 -0.454035,-1.41632 -1.00898,-2.69592 -2.357375,-5.43574 -2.666141,-6.25491 -3.096885,-8.21604 -0.248973,-1.1336 -0.717375,-2.22467 -1.040879,-2.42461 -0.323504,-0.19994 -0.588188,-0.94845 -0.588188,-1.66335 0,-0.71491 -0.401096,-2.2034 -0.891319,-3.30777 -0.490233,-1.10437 -1.228266,-3.29831 -1.640087,-4.87542 -0.411821,-1.57711 -1.177567,-4.44457 -1.701663,-6.37215 -8.3598066,-30.74671 -9.795533,-68.53979 -3.788434,-99.72419 1.596367,-8.28715 2.674416,-13.31804 3.072309,-14.33734 0.205205,-0.52571 0.685857,-2.1745 1.068106,-3.66399 0.382258,-1.48949 1.010781,-3.92684 1.396729,-5.41633 0.385948,-1.48949 1.102807,-3.61174 1.59304,-4.71611 0.490223,-1.10437 0.891319,-2.59287 0.891319,-3.30777 0,-0.71491 0.264684,-1.46342 0.588188,-1.66335 0.323504,-0.19994 0.791906,-1.29101 1.040879,-2.42461 0.430744,-1.96114 0.73951,-2.78031 3.096885,-8.21604 0.554945,-1.27961 1.00898,-2.49277 1.00898,-2.69593 0,-1.17289 8.623066,-18.65539 11.864487,-24.05417 1.184841,-1.97342 2.154248,-3.90897 2.154248,-4.30121 0,-0.39223 0.286753,-0.71316 0.637218,-0.71316 0.350474,0 0.637218,-0.29835 0.637218,-0.66301 0,-0.36466 0.544296,-1.43996 1.209552,-2.38956 0.665255,-0.9496 2.82938,-4.22862 4.809168,-7.28671 1.979779,-3.0581 3.944514,-5.92751 4.366078,-6.37647 0.421555,-0.44896 1.48334,-1.85193 2.359511,-3.1177 2.067218,-2.98644 5.443373,-7.18105 8.443095,-10.48987 1.314257,-1.44968 2.38956,-2.79829 2.38956,-2.99692 0,-0.19863 4.395984,-4.75451 9.768868,-10.124186 8.325378,-8.320434 12.049033,-11.739194 16.869823,-15.488532 0.457305,-0.35567 1.61653,-1.363544 2.576041,-2.239714 0.959521,-0.876171 3.381143,-2.716001 5.381389,-4.088506 2.000239,-1.372514 3.636799,-2.734561 3.636799,-3.026777 0,-0.292216 0.29835,-0.531303 0.66301,-0.531303 0.59451,0 4.27024,-2.333389 5.07193,-3.219703 0.17523,-0.193737 1.46559,-1.038848 2.86747,-1.878011 1.40187,-0.839172 2.69223,-1.690118 2.86746,-1.890985 0.17524,-0.200867 1.03548,-0.720854 1.91165,-1.155526 0.87618,-0.434682 2.45328,-1.340493 3.50469,-2.012926 7.23032,-4.624213 25.5006,-13.517778 34.09101,-16.594748 2.27804,-0.815968 4.41431,-1.725773 4.74725,-2.021783 0.33295,-0.29602 1.14986,-0.538214 1.81535,-0.538214 0.6655,0 2.11356,-0.381143 3.21793,-0.84698 2.71542,-1.145392 7.88795,-2.758776 10.61036,-3.309517 1.22663,-0.248143 2.517,-0.66864 2.86746,-0.934429 0.35048,-0.26579 2.07096,-0.690719 3.8233,-0.944287 1.75234,-0.253568 3.47283,-0.648171 3.82329,-0.876895 1.48126,-0.966719 19.33148,-3.792524 28.99329,-4.589826 19.64798,-1.621382 22.9438,-1.752761 29.94913,-1.193917 4.03038,0.321531 10.76893,0.856799 14.97455,1.189503 9.90937,0.783908 22.26575,2.832241 32.49798,5.387232 8.44806,2.10949 9.60779,2.426101 10.83266,2.957385 0.70093,0.304027 2.27804,0.829905 3.50469,1.168625 2.32933,0.643195 5.78981,1.817159 7.96519,2.702167 0.70094,0.285161 3.99852,1.569397 7.32797,2.853852 6.60294,2.547337 22.00653,9.920439 27.08165,12.962937 1.75234,1.050527 4.04632,2.344143 5.09772,2.874731 2.14724,1.083578 4.30005,2.405947 4.77912,2.935591 0.17523,0.193727 1.46559,1.038838 2.86747,1.87801 1.40187,0.839163 2.69223,1.684274 2.86746,1.878011 0.7663,0.847189 4.46452,3.219703 5.01882,3.219703 0.33546,0 0.7055,0.215063 0.82232,0.477916 0.27291,0.614033 6.0424,5.257026 6.5325,5.257026 0.20387,0 0.89501,0.501806 1.53588,1.115124 1.23709,1.183916 2.37647,2.142436 7.38631,6.21382 4.00605,3.255625 19.6523,18.888652 22.98379,22.964362 1.39811,1.71044 3.26196,3.89409 4.1419,4.85259 0.87993,0.95848 1.88663,2.11985 2.23709,2.58081 0.35048,0.46096 1.71252,2.17374 3.02678,3.80618 1.31426,1.63243 2.38956,3.15534 2.38956,3.38426 0,0.22889 0.35843,0.81586 0.79651,1.30437 1.37817,1.53677 1.99029,2.40118 5.17275,7.30458 1.70599,2.62851 3.64154,5.55605 4.30121,6.50565 0.65966,0.9496 1.1994,2.0249 1.1994,2.38956 0,0.36466 0.28675,0.66301 0.63721,0.66301 0.35048,0 0.63722,0.30554 0.63722,0.67896 0,0.37342 1.36205,3.02583 3.02678,5.89423 4.06238,6.99971 8.38869,15.94664 11.6116,24.01315 0.77014,1.92757 1.80603,4.44634 2.30196,5.59725 0.49592,1.15091 0.90169,2.39794 0.90169,2.77117 0,0.37323 0.38294,1.58217 0.85098,2.68654 1.7707,4.17814 2.64204,6.97638 4.89129,15.70808 0.40627,1.5771 0.9756,3.44096 1.26518,4.14189 0.55096,1.33358 1.42726,5.45279 2.98227,14.01874 5.85238,32.23859 4.41002,69.75736 -3.83377,99.72419 -0.53028,1.92758 -1.30108,4.79504 -1.7129,6.37215 -0.41183,1.57711 -1.14986,3.77105 -1.64008,4.87542 -0.49023,1.10437 -0.89132,2.55244 -0.89132,3.21794 0,0.66549 -0.2601,1.48239 -0.578,1.81534 -0.31791,0.33295 -0.87386,1.60897 -1.23547,2.83561 -1.15892,3.93127 -2.7188,7.94733 -3.32887,8.57055 -0.32594,0.33294 -0.59261,0.97261 -0.59261,1.42148 0,0.72254 -2.36568,6.06896 -6.57497,14.85936 -0.75519,1.57711 -2.73898,5.21435 -4.40842,8.08276 -1.66943,2.8684 -3.03534,5.52082 -3.03534,5.89424 0,0.37342 -0.28674,0.67895 -0.63722,0.67895 -0.35046,0 -0.63721,0.29836 -0.63721,0.66302 0,0.36466 -0.53974,1.43996 -1.1994,2.38956 -0.65967,0.94959 -2.59505,3.87714 -4.30084,6.50565 -1.70578,2.62852 -3.38834,5.10242 -3.73901,5.49756 -0.35067,0.39514 -1.0677,1.35381 -1.59341,2.13038 -0.5257,0.77657 -1.45763,2.00256 -2.07095,2.72444 -0.61331,0.72188 -1.11971,1.48369 -1.1253,1.69291 -0.006,0.20923 -0.79416,1.28508 -1.75234,2.3908 -0.9582,1.10571 -3.46265,4.07428 -5.56546,6.5968 -4.60713,5.52671 -20.52339,21.61277 -24.89861,25.16426 -4.71917,3.83066 -6.12378,5.00422 -7.2466,6.0545 -0.56202,0.52571 -2.66346,2.0788 -4.66989,3.4513 -2.00645,1.37252 -3.64807,2.73456 -3.64807,3.02678 0,0.29221 -0.29835,0.53129 -0.66301,0.53129 -0.59451,0 -4.27024,2.3334 -5.07193,3.21972 -0.17523,0.19373 -1.46559,1.03883 -2.86746,1.87801 -1.40188,0.83917 -2.69224,1.71731 -2.86747,1.95142 -0.17524,0.23412 -0.96379,0.62701 -1.75234,0.8731 -0.78856,0.24609 -1.43374,0.6868 -1.43374,0.97937 0,0.29257 -0.78855,0.8426 -1.75234,1.22229 -1.70987,0.67361 -3.9809,1.96824 -4.61981,2.63358 -1.12164,1.16802 -22.58773,11.26417 -29.01615,13.64716 -2.44071,0.90476 -5.01114,1.88614 -5.71208,2.18085 -8.18571,3.44162 -29.05864,8.75177 -41.519,10.56259 -3.20923,0.46639 -6.08346,1.00155 -6.38719,1.18927 -0.30372,0.18771 -6.85389,0.65402 -14.55593,1.03626 -7.70205,0.38223 -15.00733,0.79109 -16.23397,0.90856 -1.22664,0.11748 -4.52423,-0.0183 -7.32798,-0.30177 z m 86.76178,-91.38354 c 2.57315,-1.34429 12.98861,-8.41797 15.19267,-10.31814 0.35047,-0.30214 2.64444,-2.08008 5.09772,-3.95098 2.45328,-1.87088 4.60388,-3.57926 4.77911,-3.79639 0.17524,-0.21713 1.75234,-1.53585 3.50468,-2.93049 1.75234,-1.39464 3.51361,-2.82838 3.91392,-3.18608 0.40031,-0.3577 2.98067,-2.65759 5.73413,-5.11087 8.83415,-7.87107 15.44203,-14.74428 19.23615,-20.00859 1.66821,-2.31463 2.02075,-3.39839 2.02075,-6.21218 0,-3.25438 -0.15117,-3.56232 -3.34538,-6.81461 -1.83997,-1.87341 -4.77911,-4.38274 -6.53146,-5.5763 -1.75234,-1.19355 -3.32945,-2.31347 -3.50468,-2.4887 -0.9599,-0.95991 -4.50376,-3.18608 -5.07193,-3.18608 -0.36466,0 -0.66301,-0.22105 -0.66301,-0.49123 0,-0.27016 -1.29037,-1.1961 -2.86747,-2.05763 -1.57711,-0.86154 -2.86747,-1.78748 -2.86747,-2.05764 0,-0.27018 -0.38625,-0.49123 -0.85832,-0.49123 -0.47208,0 -1.51956,-0.57348 -2.32775,-1.27442 -0.80819,-0.70094 -1.85569,-1.27444 -2.32776,-1.27444 -0.47207,0 -0.85832,-0.26742 -0.85832,-0.59427 0,-0.32685 -0.64518,-0.79562 -1.43374,-1.04171 -0.78855,-0.24609 -1.5771,-0.64136 -1.75234,-0.87838 -0.53488,-0.72348 -8.08745,-5.13222 -8.79196,-5.13222 -0.36304,0 -0.75564,-0.21506 -0.87247,-0.47791 -0.1922,-0.43246 -2.47221,-1.76022 -7.8585,-4.5764 -1.05115,-0.54958 -2.05763,-1.19155 -2.23664,-1.42663 -0.17902,-0.23506 -1.11116,-0.62457 -2.07143,-0.86559 -0.96028,-0.24102 -1.74597,-0.69387 -1.74597,-1.00635 0,-0.31247 -0.32702,-0.56813 -0.72671,-0.56813 -0.65007,0 -4.64044,-1.6947 -7.76504,-3.29779 -1.66509,-0.85428 -7.04073,-1.40075 -8.98325,-0.91319 -2.11467,0.53074 -14.57187,13.16349 -15.56122,15.78051 -0.12081,0.31956 -2.51516,2.8765 -5.32077,5.68213 -3.48002,3.48001 -5.334,4.91353 -5.8339,4.51083 -0.40303,-0.32467 -1.94995,-0.79104 -3.4376,-1.0364 -1.48766,-0.24535 -2.86663,-0.7079 -3.06438,-1.02786 -0.19776,-0.31998 -0.84444,-0.5915 -1.43707,-0.6034 -0.59264,-0.0119 -2.22451,-0.57565 -3.62639,-1.2528 -1.40187,-0.67716 -3.05067,-1.24093 -3.66399,-1.25282 -0.61331,-0.0119 -1.11512,-0.30836 -1.11512,-0.65883 0,-0.35047 -0.32702,-0.63721 -0.72673,-0.63721 -0.72037,0 -6.30746,-2.57197 -6.91986,-3.18549 -0.17523,-0.17556 -1.74725,-1.03607 -3.49336,-1.91224 -1.74612,-0.87617 -3.55878,-1.95147 -4.02812,-2.38956 -0.46934,-0.43808 -1.23908,-0.79652 -1.71055,-0.79652 -0.47146,0 -0.95278,-0.22727 -1.06962,-0.50504 -0.11682,-0.27779 -1.35938,-1.2006 -2.76126,-2.05073 -1.40187,-0.85012 -2.83561,-1.77407 -3.18607,-2.05324 -0.35047,-0.27917 -2.07096,-1.56923 -3.8233,-2.86679 -4.34986,-3.22096 -4.03801,-2.97207 -7.96519,-6.35738 -6.65875,-5.74 -14.69606,-14.06352 -18.96886,-19.64433 -2.71652,-3.5481 -6.8942,-9.53185 -8.43627,-12.08338 -0.84726,-1.40187 -1.90963,-2.92777 -2.36083,-3.39089 -0.45121,-0.46312 -0.82037,-1.22778 -0.82037,-1.69924 0,-0.47147 -0.21506,-0.95279 -0.47791,-1.06961 -0.61961,-0.27538 -7.16867,-13.47233 -7.16867,-14.44552 0,-0.40779 -0.28675,-0.74144 -0.63722,-0.74144 -0.35047,0 -0.63897,-0.50182 -0.64114,-1.11514 -0.002,-0.61331 -0.40525,-1.88437 -0.89576,-2.82454 -0.49051,-0.94018 -1.09536,-2.66066 -1.34409,-3.82329 -0.24874,-1.16263 -0.66553,-2.40062 -0.92622,-2.75109 -0.26068,-0.35047 -0.64675,-1.55031 -0.85794,-2.66632 -0.35086,-1.85416 -0.008,-2.40907 3.98022,-6.43678 2.4003,-2.42422 5.28841,-5.06578 6.41801,-5.87014 4.04625,-2.88119 13.2689,-11.68128 14.83671,-14.15694 1.15829,-1.82901 1.49712,-6.54907 0.51376,-7.15682 -0.31997,-0.19775 -0.77529,-1.50504 -1.01183,-2.90508 -0.23654,-1.40004 -0.66882,-2.54551 -0.96064,-2.54551 -0.29182,0 -0.71952,-0.86025 -0.95044,-1.91166 -0.23093,-1.0514 -0.66105,-1.91164 -0.95583,-1.91164 -0.29477,0 -0.72489,-0.86024 -0.95582,-1.91165 -0.23092,-1.0514 -0.65275,-1.91164 -0.93737,-1.91164 -0.28463,0 -0.71471,-0.78568 -0.95572,-1.74595 -0.24101,-0.96029 -0.63053,-1.89221 -0.86559,-2.07096 -0.23507,-0.17874 -1.14426,-1.75873 -2.02043,-3.51107 -0.87617,-1.75234 -1.74225,-3.32944 -1.92462,-3.50469 -0.18237,-0.17523 -0.75586,-1.15664 -1.27442,-2.18091 -1.81231,-3.57961 -2.20442,-4.19123 -2.687,-4.19123 -0.26737,0 -0.48612,-0.40964 -0.48612,-0.91031 0,-0.50068 -0.36178,-1.28923 -0.80394,-1.75235 -0.44218,-0.46312 -1.23074,-1.68007 -1.75235,-2.70434 -1.84064,-3.61434 -2.21123,-4.19123 -2.69253,-4.19123 -0.26737,0 -0.48611,-0.37179 -0.48611,-0.82622 0,-0.45442 -0.43265,-1.38635 -0.96146,-2.07096 -0.52878,-0.68459 -3.31264,-4.82906 -6.18633,-9.20992 -6.03697,-9.20316 -5.35728,-8.27095 -9.20797,-12.62917 -7.53563,-8.52886 -11.50458,-7.38306 -26.32295,7.59918 -7.06438,7.1425 -12.47232,13.24106 -19.44978,21.93364 -1.05141,1.30984 -2.83693,3.41888 -3.96781,4.68674 -1.13089,1.26785 -2.06282,2.66363 -2.07095,3.10171 -0.009,0.43809 -0.25387,0.79651 -0.54608,0.79651 -0.29222,0 -1.6504,1.6488 -3.01817,3.664 -1.36779,2.01518 -2.63412,3.80736 -2.81409,3.98259 -0.93622,0.91161 -3.19468,4.49717 -3.19468,5.07192 0,0.36466 -0.2296,0.66302 -0.51023,0.66302 -0.28064,0 -1.140877,1.29803 -1.911647,2.88451 -1.527365,3.14378 -1.846608,9.47266 -0.754478,14.95751 0.314028,1.57711 0.905047,4.58796 1.31337,6.69077 0.408312,2.1028 0.962105,4.11004 1.230645,4.4605 0.26854,0.35047 0.689,1.85439 0.93436,3.34205 0.24535,1.48765 0.70788,2.86662 1.02786,3.06437 0.31998,0.19775 0.58177,0.94448 0.58177,1.65939 0,0.7149 0.3952,2.2034 0.87821,3.30777 0.48301,1.10437 1.38188,3.44168 1.99749,5.19402 0.61559,1.75234 1.66979,4.47643 2.34265,6.05354 0.67287,1.57711 1.46622,3.44097 1.76302,4.14191 1.92914,4.55603 7.11103,14.82702 9.70388,19.23402 1.68763,2.8684 3.06842,5.52081 3.06842,5.89424 0,0.37342 0.28675,0.67895 0.63722,0.67895 0.35046,0 0.63722,0.29836 0.63722,0.66301 0,0.36466 0.54004,1.43997 1.20009,2.38956 0.66006,0.9496 2.78419,4.1639 4.72031,7.14288 1.93612,2.97897 4.54483,6.85006 5.79713,8.6024 1.25231,1.75234 2.64082,3.71463 3.08558,4.36064 0.44476,0.646 1.34353,1.793 1.99726,2.54886 0.65374,0.75587 1.65735,2.09104 2.23026,2.96705 1.07659,1.64618 2.88239,3.91469 4.54633,5.71123 0.5257,0.56761 2.10238,2.454 3.50372,4.19199 4.61155,5.71939 5.07178,6.25101 8.02058,9.26452 1.60704,1.64231 3.56813,3.80811 4.35796,4.81289 2.04444,2.60079 8.73581,9.50521 13.19524,13.61536 12.72356,11.72698 18.69857,16.97324 24.31138,21.34614 0.45025,0.35078 1.16751,0.92453 1.59391,1.275 4.61869,3.79628 6.83573,5.41633 7.41225,5.41633 0.37909,0 0.69122,0.21506 0.69362,0.47791 0.003,0.26285 1.0777,1.1944 2.38956,2.07012 1.31186,0.8757 2.7085,1.87931 3.10365,2.23025 0.39514,0.35093 1.36025,1.06817 2.14469,1.59387 0.78445,0.5257 2.08349,1.45763 2.88675,2.07095 0.80328,0.61332 1.7498,1.11513 2.10341,1.11513 0.3536,0 0.73849,0.23748 0.85532,0.52772 0.22675,0.56337 10.70529,7.019 15.69228,9.66772 1.64965,0.87617 3.14273,1.74901 3.31797,1.93964 0.31689,0.34472 17.00273,8.56033 19.43507,9.56925 0.70093,0.29073 2.62074,1.11777 4.26624,1.83784 1.64549,0.72007 3.26151,1.30922 3.59114,1.30922 0.32965,0 1.42067,0.42836 2.42452,0.9519 1.00385,0.52354 2.29421,0.95367 2.86747,0.95582 0.57326,0.002 1.86362,0.43229 2.86747,0.95583 1.00385,0.52354 2.45344,0.95366 3.22131,0.95582 0.76787,0.002 1.55674,0.26381 1.75305,0.58145 0.19631,0.31763 1.79002,0.77461 3.54158,1.01551 1.75156,0.2409 3.33136,0.67539 3.51067,0.96553 0.17933,0.29013 2.25856,0.72785 4.62053,0.9727 2.36198,0.24486 4.72462,0.68876 5.25032,0.98646 0.52571,0.29768 2.8649,0.54997 5.19822,0.56062 3.32605,0.0152 4.90888,-0.32881 7.32798,-1.59261 z M 280.482,229.8433 c 9.98374,-9.98835 18.35294,-18.16064 18.59821,-18.16064 0.24529,0 8.59352,8.17229 18.55164,18.16064 9.95811,9.98834 18.35704,18.16063 18.66428,18.16063 0.92523,0 14.27955,-13.60973 14.27955,-14.55265 0,-0.48084 -8.20614,-9.05245 -18.23585,-19.04802 l -18.23585,-18.17377 18.23585,-18.24399 c 10.02971,-10.03419 18.23585,-18.56922 18.23585,-18.96672 0,-0.76537 -13.79629,-14.88094 -14.54436,-14.88094 -0.24114,0 -8.71135,8.27661 -18.82269,18.39246 l -18.38426,18.39247 -18.35279,-18.39247 c -10.09405,-10.11585 -18.55249,-18.39246 -18.79655,-18.39246 -0.81959,0 -14.32822,13.85997 -14.32822,14.70088 0,0.45709 8.20308,8.98869 18.22906,18.95911 l 18.22907,18.12804 -18.22907,18.2372 c -10.02598,10.03045 -18.22906,18.62418 -18.22906,19.09717 0,0.9667 13.34247,14.64877 14.34154,14.70658 0.35278,0.0204 8.80991,-8.13518 18.79365,-18.12352 z"
       id="path1" />
  </g>
</svg>
