<?xml version="1.0" encoding="UTF-8" standalone="no"?>
<svg
   width="24"
   height="24"
   viewBox="0 0 24 24"
   version="1.1"
   id="svg1"
   sodipodi:docname="logo-no-text.svg"
   inkscape:version="1.4 (1:1.4+202410161351+e7c3feb100)"
   xmlns:inkscape="http://www.inkscape.org/namespaces/inkscape"
   xmlns:sodipodi="http://sodipodi.sourceforge.net/DTD/sodipodi-0.dtd"
   xmlns="http://www.w3.org/2000/svg"
   xmlns:svg="http://www.w3.org/2000/svg">
  <defs
     id="defs1" />
  <sodipodi:namedview
     id="namedview1"
     pagecolor="#505050"
     bordercolor="#ffffff"
     borderopacity="1"
     inkscape:showpageshadow="0"
     inkscape:pageopacity="0"
     inkscape:pagecheckerboard="1"
     inkscape:deskcolor="#505050"
     inkscape:zoom="13.696285"
     inkscape:cx="15.551662"
     inkscape:cy="12.485137"
     inkscape:window-width="1239"
     inkscape:window-height="734"
     inkscape:window-x="678"
     inkscape:window-y="939"
     inkscape:window-maximized="0"
     inkscape:current-layer="layer3" />
  <path
     fill="none"
     stroke="currentColor"
     stroke-linecap="round"
     stroke-linejoin="round"
     stroke-width="1.65553"
     d="M 12,6.8660913 A 11.002799,8.9078588 0 0 0 4.6402682,4.5899695 c -1.2904063,0 -2.5292943,0.178753 -3.67986565,0.5084529 V 19.249705 A 11.039597,8.9376508 0 0 1 4.6402682,18.74125 c 2.8273635,0 5.4069508,0.860995 7.3597318,2.276123 M 12,6.8660913 a 11.002799,8.9078588 0 0 1 7.359732,-2.2761218 c 1.290407,0 2.529294,0.178753 3.679866,0.5084529 V 19.249705 A 11.039597,8.9376508 0 0 0 19.359732,18.74125 11.002799,8.9078588 0 0 0 12,21.017373 M 12,6.8660913 V 21.017373"
     id="path1"
     style="fill:#fffff9;fill-opacity:1;stroke:#0ea5e9;stroke-opacity:1" />
  <g
     inkscape:groupmode="layer"
     id="layer1"
     inkscape:label="Layer 1"
     style="fill:#fffff9;fill-opacity:1" />
  <g
     inkscape:groupmode="layer"
     id="layer5"
     inkscape:label="Sails">
    <g
       id="g1"
       transform="matrix(1.1536617,0,0,1.1446678,-0.82040651,-0.24857179)">
      <path
         id="path10"
         style="display:inline;fill:#ffffff;stroke:#000000;stroke-width:0.507468;stroke-linecap:round;paint-order:stroke fill markers"
         d="M 3.9318995,13.228773 1.0933434,13.101003 11.288722,0.62339858 12.658258,2.4021033 Z"
         sodipodi:nodetypes="ccccc" />
      <path
         id="path11"
         style="display:inline;fill:#0ea5e9;fill-opacity:1;stroke:#0ea5e9;stroke-width:0.507468;stroke-linecap:round;stroke-opacity:1;paint-order:stroke fill markers"
         d="M 18.464898,14.025104 2.8941996,14.10439 13.302245,1.2761577 21.17343,10.863444 Z"
         sodipodi:nodetypes="ccccc" />
    </g>
  </g>
  <g
     inkscape:groupmode="layer"
     id="layer2"
     inkscape:label="Layer 2"
     style="display:inline" />
  <g
     inkscape:groupmode="layer"
     id="layer3"
     inkscape:label="Layer 3"
     style="display:inline" />
</svg>
